#!OML:ASF E:/inclinewalkrobotboard/Project1/Captureday1/Session1/subject1.ASF
:FULLY-SPECIFIED
:DEGREES
276
root 0 0 0 17.490457931530567 -4.30581476582231 -1.4181542862318595
lowerback 21.339585768874596 -3.244636614259912 -1.1422243975181137
upperback -0.8452495439555268 -4.790363537384399 3.893657967248358
thorax -12.683705614242315 -2.1342174831779297 5.257949053652231
lowerneck -9.62437366093128 9.308343753023623 18.58481820954473
upperneck 21.426818485709916 10.901152668521336 -8.282416320608604
head 9.803583095844292 5.905357640010321 -4.610512173414991
rclavicle 1.096035752507117E-15 5.462800307297371E-15
rhumerus 29.122779464123354 19.37575811678793 -73.86195427396311
rradius 107.50524363347934
rwrist -40.88929032828672
rhand -24.505874312739166 -23.950038266919577
rfingers 7.125019999999992
rthumb 2.0214255929940563 -54.377802620469836
lclavicle -3.618358600071727E-15 5.689554696505046E-15
lhumerus 25.74701878336147 -35.856850271440024 73.73706477159915
lradius 142.30773163690984
lwrist 9.020113008819045
lhand -33.44536015632586 8.315258929876258
lfingers 7.125019999999938
lthumb -6.614216387013366 38.78221293186514
rfemur -49.47426185574447 3.449956323482395 29.432983735244893
rtibia 45.25938369833461
rfoot -22.964549141627543 -3.711002231504187
rtoes -43.13773948618082
lfemur -42.972062755870255 -18.868146343986634 -12.911611584039298
ltibia 22.026703265927612
lfoot -43.939011143375005 4.582853031951433
ltoes -35.44354902027897
277
root 0 0 0 17.504753129404868 -4.272014922137192 -1.4174611035315081
lowerback 21.309007752942378 -3.2435207880175687 -1.131017949567544
upperback -0.8530265426646899 -4.785665337940245 3.905738330690953
thorax -12.675902752585804 -2.131842348106681 5.2649565733364945
lowerneck -9.61962644390387 9.291248306973788 18.571464696315424
upperneck 21.44504982388174 10.876025591884844 -8.273771342873122
head 9.80502320209275 5.893626825531005 -4.608355996909513
rclavicle 1.1972791298071406E-15 5.367708447936309E-15
rhumerus 29.001097988450198 20.06367172171221 -74.27376779802913
rradius 108.60904989749514
rwrist -41.2615154408652
rhand -24.517353612807636 -23.794607200599657
rfingers 7.125019999999991
rthumb 2.0088575905834 -54.2230161219113
lclavicle -3.6439906433797335E-15 5.607238026705376E-15
lhumerus 25.714392633907956 -35.960693041226065 73.82083758266675
lradius 142.36053281105038
lwrist 9.062647671093897
lhand -33.45739362320105 8.330678893426247
lfingers 7.125019999999937
lthumb -6.626148841431432 38.79857395607834
rfemur -49.12013564090332 3.3832776323989737 29.580138587139846
rtibia 45.143688583798905
rfoot -22.85739061370977 -3.7016202427812477
rtoes -43.1918125265985
lfemur -43.42151662091446 -18.688578685831786 -12.861331900841263
ltibia 22.561760928918513
lfoot -43.89428275719359 4.456653142877749
ltoes -35.53521782310995
278
root 0 0 0 17.51744306867973 -4.23912820956388 -1.4173848339200807
lowerback 21.27846409672938 -3.242796492836728 -1.1212036153503355
upperback -0.8607761671061551 -4.781760906221425 3.9167600716468467
thorax -12.667930769713315 -2.1298061136077346 5.271805263500207
lowerneck -9.6154403208412 9.275526004677605 18.558912104449906
upperneck 21.464229472201673 10.85275530733553 -8.265199211141459
head 9.807076655157536 5.8828121333076755 -4.606196193157633
rclavicle 1.2894386997375477E-15 5.293050851950222E-15
rhumerus 28.877211508008347 20.679800052655686 -74.65250366682372
rradius 109.54092295377099
rwrist -41.56897603347024
rhand -24.524934394229437 -23.64782083671406
rfingers 7.12501999999999
rthumb 2.000205283403062 -54.076555634847125
lclavicle -3.645457060114686E-15 5.54966845192836E-15
lhumerus 25.68608049505721 -36.03420143970571 73.88326270980463
lradius 142.39577676915516
lwrist 9.094411176747364
lhand -33.464368794177325 8.34260873573897
lfingers 7.125019999999937
lthumb -6.6331363365358715 38.81108547091718
rfemur -48.7297878898392 3.306769765924848 29.729424570754762
rtibia 45.00942394386759
rfoot -22.712765208949072 -3.7000125909192576
rtoes -43.271766301120515
lfemur -43.61469056896365 -18.650342120230924 -12.807632195185754
ltibia 22.699542039728247
lfoot -43.925348840975026 4.449792872689537
ltoes -35.5696244268902
279
root 0 0 0 17.52788748436081 -4.209220418893761 -1.4183736038087775
lowerback 21.249661761160528 -3.242658221001239 -1.113346954498807
upperback -0.8681060944757713 -4.77910442127764 3.926049662952618
thorax -12.660285377204634 -2.1283369967173487 5.278109744155669
lowerneck -9.611794910072248 9.2625653330632 18.548509319147275
upperneck 21.483075951927823 10.833296736888963 -8.25724522593365
head 9.80960474751141 5.873878497217564 -4.604205675605119
rclavicle 1.368655208014436E-15 5.247759754379777E-15
rhumerus 28.75676374335281 21.191460434221298 -74.9755259556325
rradius 110.27199061403418
rwrist -41.80178913833452
rhand -24.52790607210319 -23.51959928428781
rfingers 7.12501999999999
rthumb 1.9962561003588828 -53.948309289603834
lclavicle -3.62161876702841E-15 5.5225998845697855E-15
lhumerus 25.665023137546292 -36.07147476245991 73.91909993966243
lradius 142.41123517052597
lwrist 9.112972483692213
lhand -33.46594470325437 8.350002024883864
lfingers 7.125019999999937
lthumb -6.6348353603284895 38.818670857102
rfemur -48.31352380135931 3.2206509614535985 29.874039213298524
rtibia 44.860050188563946
rfoot -22.52925473736355 -3.7072505381061074
rtoes -43.38002423878173
lfemur -43.51771479959733 -18.771305665312084 -12.74890503620855
ltibia 22.386160173640054
lfoot -44.043044128991255 4.578784893160733
ltoes -35.5375231410063
280
root 0 0 0 17.53547132121757 -4.1844135414960135 -1.420852951142603
lowerback 21.224504160729367 -3.243252400220971 -1.1079426797547658
upperback -0.874594110697168 -4.778080638757745 3.932946052664226
thorax -12.653552145574327 -2.1276356514616763 5.283432769880148
lowerneck -9.60855360097121 9.253734493708397 18.541601223744088
upperneck 21.499995014289784 10.819633575076924 -8.250622940545014
head 9.812372609586058 5.867787764669126 -4.602603792976163
rclavicle 1.4353695482530415E-15 5.240548851890024E-15
rhumerus 28.64614531154805 21.57479527432233 -75.22472879311115
rradius 110.78583095287647
rwrist -41.954248696066514
rhand -24.526318978004497 -23.418483288229194
rfingers 7.1250199999999895
rthumb 1.9970371822388895 -53.846842154590014
lclavicle -3.571830291354855E-15 5.531339696811044E-15
lhumerus 25.65372741886504 -36.06781974987282 73.92412024930702
lradius 142.40522241306823
lwrist 9.116469480331324
lhand -33.461845218153876 8.352066739576024
lfingers 7.125019999999937
lthumb -6.630965811431166 38.82051669028934
rfemur -47.88452805455331 3.1254042595179286 30.006246386943992
rtibia 44.70060240112521
rfoot -22.307308720193458 -3.723994476987146
rtoes -43.51791410237455
lfemur -43.107673598372 -19.059498288292605 -12.686324495033404
ltibia 21.59262650158044
lfoot -44.24897228208529 4.850808981132781
ltoes -35.43451081291513
281
root 0 0 0 17.539563593287504 -4.166740861804218 -1.4250631979013106
lowerback 21.20500635623562 -3.244613866806941 -1.1054118369314216
upperback -0.8797917372888424 -4.778906070113937 3.9368259446791525
thorax -12.648357539548192 -2.127825853591649 5.2872950315859235
lowerneck -9.605591640983908 9.250168869231643 18.539277803504703
upperneck 21.51335835289792 10.81347174082668 -8.246092886923982
head 9.815117171427236 5.865346217509908 -4.601611722654454
rclavicle 1.4927330343318355E-15 5.278527522758645E-15
rhumerus 28.55235765066775 21.812549491510893 -75.38613853960271
rradius 111.07033263510522
rwrist -42.02220039765807
rhand -24.52080956001033 -23.351460547956513
rfingers 7.1250199999999895
rthumb 2.0019833430356186 -53.77920687380264
lclavicle -3.4958396465255305E-15 5.580157695508387E-15
lhumerus 25.653903268352828 -36.01989636301191 73.89534484862756
lradius 142.3764189097346
lwrist 9.103613390606846
lhand -33.4517794924763 8.348301235396
lfingers 7.125019999999938
lthumb -6.621233328422726 38.81610242039337
rfemur -47.4618983192932 3.022659426368797 30.116839199432924
rtibia 44.53892834412393
rfoot -22.051535424529348 -3.750227140232994
rtoes -43.683779707481065
lfemur -42.378963909910574 -19.508606348987477 -12.625474402668186
ltibia 20.328275933534062
lfoot -44.53145135541795 5.2587248706591065
ltoes -35.26351539438923
282
root 0 0 0 17.53953093855073 -4.157982464595648 -1.4309050677395958
lowerback 21.19317769340686 -3.2466105060854638 -1.1060823924553689
upperback -0.8832315434175895 -4.781537559278078 3.9371474458588933
thorax -12.645308184807323 -2.1289088011040267 5.289197805881583
lowerneck -9.602942033491201 9.252555985099416 18.542133791904316
upperneck 21.521780606571326 10.815915067491833 -8.24430060901825
head 9.81760907748222 5.8670482531462245 -4.601397538465637
rclavicle 1.5443458476579437E-15 5.36550846891542E-15
rhumerus 28.482735734277895 21.8915141872768 -75.44907694367915
rradius 111.1116652794451
rwrist -42.0013309388883
rhand -24.512303580853583 -23.324069070845788
rfingers 7.12501999999999
rthumb 2.0102266464533844 -53.751024198551924
lclavicle -3.3942789140219677E-15 5.6710702428032646E-15
lhumerus 25.666040949935322 -35.926427915474385 73.83164757303959
lradius 142.32399174827304
lwrist 9.073844479495168
lhand -33.435469627094875 8.33857624618851
lfingers 7.125019999999938
lthumb -6.605356463283584 38.80528291255732
rfemur -47.07478556423606 2.91662054564115 30.194681939198887
rtibia 44.387225541175354
rfoot -21.77411722011077 -3.7848481995498915
rtoes -43.87041892357031
lfemur -41.35704627552462 -20.0924575567396 -12.576619588691948
ltibia 18.661020632250963
lfoot -44.8636704578898 5.7749744029201
ltoes -35.036488702183675
283
root 0 0 0 17.534865924660927 -4.159450488077793 -1.437847559426368
lowerback 21.190830851513027 -3.248925796526793 -1.110130836815769
upperback -0.884452993625052 -4.7856261885866545 3.9335329296402897
thorax -12.644914783716306 -2.1307394192007263 5.288677569578095
lowerneck -9.600909826729954 9.260954168299863 18.550088654634717
upperneck 21.524296194379346 10.827178594105321 -8.245607099104454
head 9.819674147784394 5.872942473355827 -4.602023380488704
rclavicle 1.5919992246730353E-15 5.4997699990322134E-15
rhumerus 28.44455722448325 21.801657790380744 -75.40610977634425
rradius 110.89251429250974
rwrist -41.887138600954486
rhand -24.501751028746995 -23.340240789189927
rfingers 7.12501999999999
rthumb 2.020852213758129 -53.76630698983049
lclavicle -3.2701442917649433E-15 5.801748158642666E-15
lhumerus 25.688940764848134 -35.78990474587795 73.73501364986815
lradius 142.24836136507523
lwrist 9.027853164887786
lhand -33.412887270342736 8.3233290238778
lfingers 7.125019999999939
lthumb -6.5832990054878024 38.788497731381945
rfemur -46.765413195147886 2.815793427383488 30.227235134089163
rtibia 44.262857408433874
rfoot -21.498504217152185 -3.825210445809631
rtoes -44.062525941053806
lfemur -40.11619194213378 -20.760790792718545 -12.552529470453727
ltibia 16.736510956004643
lfoot -45.20641644274235 6.347462661548977
ltoes -34.774076090416614
